<?xml version="1.0" encoding="utf-8"?>
<!-- Generator: Adobe Illustrator 16.0.0, SVG Export Plug-In . SVG Version: 6.00 Build 0)  -->
<!DOCTYPE svg PUBLIC "-//W3C//DTD SVG 1.1//EN" "http://www.w3.org/Graphics/SVG/1.1/DTD/svg11.dtd">
<svg version="1.1" id="Isolation_Mode" xmlns="http://www.w3.org/2000/svg" xmlns:xlink="http://www.w3.org/1999/xlink" x="0px"
	 y="0px" width="339.5px" height="42px" viewBox="0 0 339.5 42" style="enable-background:new 0 0 339.5 42;" xml:space="preserve">
<style type="text/css">
<![CDATA[
	.st0{fill:#231F20;}
	.st1{fill:#A0968A;}
]]>
</style>
<path class="st0" d="M7,0.6l7.1,30.9h0.1l7-30.9h7v40.9h-4.1V4h-0.1l-8.5,37.5h-2.9L4.2,4H4.1v37.5H0V0.6H7z"/>
<path class="st0" d="M47,20.7c-0.2-2.2-0.7-3.8-1.5-4.6c-0.8-0.9-1.9-1.3-3.1-1.3c-0.9,0-1.6,0.2-2.2,0.5c-0.6,0.3-1.1,0.9-1.5,1.8
	c-0.4,0.9-0.7,2.1-0.9,3.7c-0.2,1.5-0.3,3.5-0.3,5.9c0,2.5,0.1,4.4,0.3,6c0.2,1.5,0.5,2.7,0.9,3.6c0.4,0.9,0.9,1.5,1.5,1.8
	c0.6,0.3,1.4,0.5,2.2,0.5c0.6,0,1.2-0.1,1.7-0.3c0.5-0.2,1-0.5,1.4-1c0.4-0.5,0.7-1.1,1-2c0.3-0.8,0.5-1.9,0.7-3.2h4
	c-0.2,1.4-0.5,2.8-0.9,4c-0.4,1.2-1,2.2-1.7,3.1c-0.7,0.9-1.6,1.5-2.6,2c-1,0.5-2.2,0.7-3.5,0.7c-3.1,0-5.4-1.2-6.8-3.7
	c-1.5-2.4-2.2-6.3-2.2-11.6c0-5.3,0.7-9.2,2.2-11.6c1.4-2.4,3.7-3.7,6.8-3.7c2.7,0,4.7,0.8,6,2.5c1.3,1.6,2.2,3.9,2.6,6.8H47z"/>
<path class="st0" d="M73.9,12.9c-0.3-3.2-1-5.6-2-7c-1-1.4-2.4-2.2-4.1-2.2c-1.3,0-2.4,0.3-3.3,0.9c-0.9,0.6-1.7,1.6-2.3,2.9
	c-0.6,1.4-1,3.1-1.3,5.3c-0.3,2.2-0.4,4.9-0.4,8.1c0,3.2,0.1,5.9,0.4,8.1c0.3,2.2,0.7,4,1.3,5.3c0.6,1.4,1.4,2.3,2.3,2.9
	c0.9,0.6,2.1,0.9,3.3,0.9c1,0,1.9-0.2,2.7-0.6c0.8-0.4,1.5-1,2.1-1.8s1-1.9,1.3-3.2c0.3-1.3,0.5-2.9,0.5-4.8h4.4
	c-0.1,4.6-1.1,8.1-2.9,10.5c-1.9,2.4-4.6,3.7-8.1,3.7c-1.8,0-3.5-0.4-4.9-1.1s-2.7-1.9-3.7-3.6c-1-1.7-1.8-3.8-2.3-6.5
	C56.3,28.1,56,24.8,56,21c0-3.8,0.3-7.1,0.8-9.8c0.5-2.7,1.3-4.8,2.3-6.5c1-1.7,2.3-2.9,3.7-3.6C64.4,0.4,66.1,0,67.9,0
	c3.1,0,5.5,1.1,7.3,3.2c1.8,2.1,2.9,5.4,3.2,9.7H73.9z"/>
<path class="st0" d="M84.9,0.6h4.1v40.9h-4.1V0.6z"/>
<path class="st0" d="M98.1,27.4V29c0,1.8,0.1,3.3,0.3,4.5c0.2,1.2,0.5,2.2,1,2.9c0.5,0.8,1,1.3,1.7,1.6c0.7,0.3,1.5,0.5,2.5,0.5
	c0.8,0,1.5-0.2,2-0.5c0.5-0.3,1-0.7,1.4-1.3s0.7-1.1,1-1.8c0.2-0.7,0.4-1.3,0.5-2l3.9,0.5c-0.2,1.1-0.5,2.1-1,3.2
	c-0.5,1-1.1,1.9-1.9,2.7c-0.8,0.8-1.7,1.4-2.8,1.9c-1.1,0.5-2.3,0.7-3.6,0.7c-3.1,0-5.4-1.2-6.8-3.7C94.7,35.9,94,32,94,26.7
	c0-5.3,0.7-9.2,2.2-11.6c1.4-2.4,3.7-3.7,6.8-3.7c1.5,0,2.9,0.3,4,1c1.1,0.7,2.1,1.6,2.8,2.8c0.7,1.2,1.3,2.7,1.6,4.4
	c0.4,1.7,0.5,3.7,0.5,5.8v1.9H98.1z M107.9,24c-0.1-3.2-0.5-5.5-1.1-7c-0.7-1.5-1.9-2.2-3.8-2.2c-0.8,0-1.4,0.2-2,0.5
	c-0.6,0.3-1.1,0.8-1.5,1.5c-0.4,0.7-0.8,1.6-1,2.8c-0.2,1.2-0.4,2.7-0.4,4.4H107.9z"/>
<path class="st0" d="M118.1,12h3.8v3.2c1-1,2.1-1.9,3.3-2.6c1.2-0.8,2.4-1.2,3.3-1.2c2,0,3.6,0.6,4.8,1.8c1.1,1.2,1.7,3.2,1.7,5.9
	v22.3H131V19.7c0-1.7-0.3-2.9-0.8-3.7s-1.3-1.2-2.4-1.2c-1,0-1.9,0.3-2.9,1c-0.9,0.6-1.8,1.5-2.7,2.7v23h-4.1V12z"/>
<path class="st0" d="M141.6,20c0.2-1.2,0.5-2.3,1-3.3c0.5-1,1-2,1.8-2.7c0.7-0.8,1.6-1.4,2.5-1.9c1-0.5,2.1-0.7,3.5-0.7
	c2.7,0,4.8,0.7,6.3,2.2c1.5,1.5,2.2,3.5,2.2,6.1v16.4c0,1.3,0.1,2.4,0.2,3.3c0.1,0.9,0.3,1.5,0.5,1.9h-4.2l-0.5-2.5
	c-0.4,0.4-0.9,0.8-1.4,1.2s-1.1,0.7-1.6,1c-0.6,0.3-1.1,0.5-1.7,0.7c-0.6,0.2-1.1,0.3-1.5,0.3c-2.3,0-4.2-0.7-5.5-2
	c-1.4-1.4-2.1-3.2-2.1-5.5c0-1.8,0.4-3.4,1.3-4.8c0.9-1.4,2-2.6,3.4-3.6c1.4-1,2.9-1.8,4.5-2.4c1.6-0.6,3.2-1.1,4.6-1.4v-2.1
	c0-1.6-0.4-2.9-1.1-3.8c-0.8-0.9-1.8-1.4-3.1-1.4c-0.8,0-1.5,0.2-2.1,0.5c-0.6,0.4-1.1,0.8-1.5,1.4c-0.4,0.5-0.7,1.2-1,1.8
	c-0.2,0.7-0.4,1.4-0.5,2L141.6,20z M154.6,25.6c-0.9,0.3-2,0.7-3.1,1.2c-1.1,0.5-2.2,1.1-3.2,1.8c-1,0.7-1.8,1.5-2.5,2.4
	c-0.7,0.9-1,2-1,3.1c0,1.4,0.3,2.5,1,3.3c0.7,0.8,1.7,1.2,3.2,1.2c1.1,0,2.1-0.3,3.1-1c0.9-0.6,1.8-1.3,2.5-2.1V25.6z"/>
<path class="st0" d="M166.1,0.6h4.1v14.7c0.9-1,1.9-1.9,3.1-2.6c1.2-0.8,2.3-1.2,3.3-1.2c2,0,3.6,0.6,4.8,1.8
	c1.1,1.2,1.7,3.2,1.7,5.9v22.3H179V19.7c0-1.7-0.3-2.9-0.8-3.7s-1.3-1.2-2.4-1.2c-1,0-1.9,0.3-2.9,1c-0.9,0.6-1.8,1.5-2.7,2.7v23
	h-4.1V0.6z"/>
<path class="st0" d="M189.6,20c0.2-1.2,0.5-2.3,1-3.3c0.5-1,1-2,1.8-2.7c0.7-0.8,1.6-1.4,2.5-1.9c1-0.5,2.1-0.7,3.5-0.7
	c2.7,0,4.8,0.7,6.3,2.2c1.5,1.5,2.2,3.5,2.2,6.1v16.4c0,1.3,0.1,2.4,0.2,3.3c0.1,0.9,0.3,1.5,0.5,1.9h-4.2l-0.5-2.5
	c-0.4,0.4-0.9,0.8-1.4,1.2s-1.1,0.7-1.6,1c-0.6,0.3-1.1,0.5-1.7,0.7c-0.6,0.2-1.1,0.3-1.5,0.3c-2.3,0-4.2-0.7-5.5-2
	c-1.4-1.4-2.1-3.2-2.1-5.5c0-1.8,0.4-3.4,1.3-4.8c0.9-1.4,2-2.6,3.4-3.6c1.4-1,2.9-1.8,4.5-2.4c1.6-0.6,3.2-1.1,4.6-1.4v-2.1
	c0-1.6-0.4-2.9-1.1-3.8c-0.8-0.9-1.8-1.4-3.1-1.4c-0.8,0-1.5,0.2-2.1,0.5c-0.6,0.4-1.1,0.8-1.5,1.4c-0.4,0.5-0.7,1.2-1,1.8
	c-0.2,0.7-0.4,1.4-0.5,2L189.6,20z M202.6,25.6c-0.9,0.3-2,0.7-3.1,1.2c-1.1,0.5-2.2,1.1-3.2,1.8c-1,0.7-1.8,1.5-2.5,2.4
	c-0.7,0.9-1,2-1,3.1c0,1.4,0.3,2.5,1,3.3c0.7,0.8,1.7,1.2,3.2,1.2c1.1,0,2.1-0.3,3.1-1c0.9-0.6,1.8-1.3,2.5-2.1V25.6z"/>
<path class="st0" d="M214.1,12h3.8v3.2c1-1,2.1-1.9,3.3-2.6c1.2-0.8,2.4-1.2,3.3-1.2c2,0,3.6,0.6,4.8,1.8c1.1,1.2,1.7,3.2,1.7,5.9
	v22.3H227V19.7c0-1.7-0.3-2.9-0.8-3.7s-1.3-1.2-2.4-1.2c-1,0-1.9,0.3-2.9,1c-0.9,0.6-1.8,1.5-2.7,2.7v23h-4.1V12z"/>
<path class="st1" d="M238.9,0.6h10.9c3.1,0,5.4,0.9,7.1,2.8c1.7,1.8,2.5,4.3,2.5,7.3c0,2-0.5,3.9-1.5,5.6c-1,1.7-2.6,2.8-4.8,3.5
	v0.1c2.5,0.6,4.3,1.9,5.4,3.7c1.1,1.8,1.7,4,1.7,6.6c0,3.8-1.1,6.6-3.2,8.5c-2.1,1.9-5.4,2.8-9.9,2.8h-8.3V0.6z M243.3,18.1h2.5
	c3.2,0,5.5-0.5,7-1.6c1.5-1.1,2.2-3,2.2-5.8c0-2.3-0.6-4-1.7-4.9c-1.1-0.9-3-1.4-5.6-1.4h-4.4V18.1z M243.3,37.7h4.4
	c2.7,0,4.7-0.6,6.1-1.8s2.1-3.1,2.1-5.8c0-2.7-0.6-4.8-1.9-6.2c-1.3-1.4-3.3-2.1-6.3-2.1h-4.4V37.7z"/>
<path class="st1" d="M266.1,12h4.1v3.6h0.1c0.6-0.9,1.2-1.6,1.7-2.2s1.1-0.9,1.7-1.2c0.6-0.3,1.2-0.5,1.9-0.6
	c0.7-0.1,1.4-0.1,2.2-0.1v3.8c-0.8,0-1.5,0.1-2.1,0.2c-0.7,0.2-1.3,0.4-2,0.8c-0.6,0.4-1.2,0.9-1.8,1.6c-0.6,0.7-1.1,1.5-1.7,2.6
	v20.9h-4.1V12z"/>
<path class="st1" d="M299.2,41.4h-3.9v-3.2c-1,1-2.1,1.9-3.3,2.6c-1.2,0.8-2.4,1.2-3.3,1.2c-2,0-3.6-0.6-4.8-1.8
	c-1.1-1.2-1.7-3.2-1.7-5.9V12h4.1v21.7c0,1.7,0.3,2.9,0.8,3.7c0.5,0.8,1.3,1.2,2.4,1.2c1,0,1.9-0.3,2.9-1c0.9-0.6,1.8-1.5,2.7-2.7
	V12h4.1V41.4z"/>
<path class="st1" d="M308.2,27.4V29c0,1.8,0.1,3.3,0.3,4.5c0.2,1.2,0.5,2.2,1,2.9c0.5,0.8,1,1.3,1.7,1.6c0.7,0.3,1.5,0.5,2.5,0.5
	c0.8,0,1.5-0.2,2-0.5c0.5-0.3,1-0.7,1.4-1.3c0.4-0.5,0.7-1.1,1-1.8c0.2-0.7,0.4-1.3,0.5-2l3.8,0.5c-0.1,1.1-0.5,2.1-1,3.2
	c-0.5,1-1.1,1.9-1.9,2.7c-0.8,0.8-1.7,1.4-2.8,1.9c-1.1,0.5-2.3,0.7-3.6,0.7c-3.1,0-5.4-1.2-6.8-3.7c-1.4-2.4-2.2-6.3-2.2-11.6
	c0-5.3,0.7-9.2,2.2-11.6c1.5-2.4,3.7-3.7,6.8-3.7c1.5,0,2.9,0.3,4,1c1.1,0.7,2.1,1.6,2.8,2.8c0.7,1.2,1.3,2.7,1.6,4.4
	c0.4,1.7,0.5,3.7,0.5,5.8v1.9H308.2z M318,24c-0.1-3.2-0.4-5.5-1.1-7c-0.7-1.5-1.9-2.2-3.8-2.2c-0.8,0-1.4,0.2-2,0.5
	c-0.6,0.3-1.1,0.8-1.5,1.5c-0.4,0.7-0.8,1.6-1,2.8c-0.2,1.2-0.4,2.7-0.4,4.4H318z"/>
<path class="st1" d="M327.9,12h4.1v3.6h0.1c0.6-0.9,1.2-1.6,1.7-2.2c0.5-0.5,1.1-0.9,1.7-1.2c0.6-0.3,1.2-0.5,1.9-0.6
	c0.7-0.1,1.4-0.1,2.2-0.1v3.8c-0.8,0-1.5,0.1-2.2,0.2c-0.7,0.2-1.3,0.4-2,0.8c-0.6,0.4-1.2,0.9-1.8,1.6c-0.6,0.7-1.1,1.5-1.7,2.6
	v20.9h-4.1V12z"/>
</svg>
